<svg xmlns="http://www.w3.org/2000/svg" width="17.541" height="23.522" viewBox="0 0 17.541 23.522">
  <g id="bag" transform="translate(0.25)">
    <path id="Caminho_3" data-name="Caminho 3" d="M12.116,137.95V123.786H25.983V122.2H10v14.164a2.115,2.115,0,0,0,2.116,2.116h.069A1.929,1.929,0,0,1,12.116,137.95Zm0,0" transform="translate(-9.471 -115.736)" opacity="0.11"/>
    <path id="Caminho_4" data-name="Caminho 4" d="M81.489,0A4.6,4.6,0,0,0,76.9,4.591V9.139a.529.529,0,0,0,1.058,0V4.591a3.533,3.533,0,0,1,7.066,0V9.139a.529.529,0,0,0,1.058,0V4.591A4.6,4.6,0,0,0,81.489,0Zm0,0" transform="translate(-72.831)" fill="#3c38f0"/>
    <path id="Caminho_5" data-name="Caminho 5" d="M16.512,112.2H.529a.53.53,0,0,0-.529.529v14.164a2.646,2.646,0,0,0,2.645,2.645H14.4a2.646,2.646,0,0,0,2.645-2.645V112.728a.527.527,0,0,0-.529-.529Zm-.529,14.693a1.591,1.591,0,0,1-1.587,1.587H2.645a1.591,1.591,0,0,1-1.587-1.587V113.257H15.983Zm0,0" transform="translate(0 -106.265)" stroke="#000" stroke-width="0.5"/>
  </g>
</svg>
