<svg xmlns="http://www.w3.org/2000/svg" width="17.331" height="15.233" viewBox="0 0 17.331 15.233">
  <g id="shopping-cart" transform="translate(0 0)">
    <path id="Caminho_8" data-name="Caminho 8" d="M5.619,10.155h9.173a.506.506,0,0,0,.488-.368l2.031-7.109a.507.507,0,0,0-.488-.647H4.447L4.084.4a.508.508,0,0,0-.5-.4H.508a.508.508,0,0,0,0,1.016H3.18L5.014,9.266a1.522,1.522,0,0,0,.6,2.92h9.173a.508.508,0,1,0,0-1.016H5.619a.508.508,0,0,1,0-1.016Zm0,0" fill="#fff"/>
    <path id="Caminho_9" data-name="Caminho 9" d="M151,361.527A1.523,1.523,0,1,0,152.523,360,1.525,1.525,0,0,0,151,361.527Zm0,0" transform="translate(-145.889 -347.818)" fill="#fff"/>
    <path id="Caminho_10" data-name="Caminho 10" d="M362,361.527A1.523,1.523,0,1,0,363.527,360,1.525,1.525,0,0,0,362,361.527Zm0,0" transform="translate(-349.75 -347.818)" fill="#fff"/>
  </g>
</svg>
