<svg xmlns="http://www.w3.org/2000/svg" width="15.899" height="14.587" viewBox="0 0 15.899 14.587">
  <path id="ic_favorite_border_24px" d="M13.526,3A4.76,4.76,0,0,0,9.949,4.661,4.76,4.76,0,0,0,6.372,3,4.33,4.33,0,0,0,2,7.372c0,2.755,2.273,5.043,6.031,8.477l.765.7,1.153,1.041L11.1,16.538c1.29-1.169,3.632-3.41,3.632-3.41S17.9,9.43,17.9,7.372A4.33,4.33,0,0,0,13.526,3Zm-3.5,12.361-.079.079-.079-.079C8.258,13.9,6.88,12.653,5.615,11.29A6.151,6.151,0,0,1,3.59,7.372,2.717,2.717,0,0,1,6.372,4.59,3.108,3.108,0,0,1,9.21,6.466H10.7a3.088,3.088,0,0,1,2.83-1.876,2.717,2.717,0,0,1,2.782,2.782C16.309,9.669,13.813,11.935,10.029,15.361Z" transform="translate(-2 -3)"/>
</svg>
